<svg xmlns="http://www.w3.org/2000/svg" version="1" viewBox="0 0 26 26" enable-background="new 0 0 26 26" width="52" height="52" style="fill: rgb(41, 128, 185);">
    <path style="text-indent:0;text-align:start;line-height:normal;text-transform:none;block-progression:tb;-inkscape-font-specification:Bitstream Vera Sans" d="M 15.65625 -0.03125 C 14.280846 -0.03760636 12.828752 0.09254274 11.3125 0.40625 C 8.28651 1.0323169 5.7746616 2.1709106 3.96875 3.59375 C 2.3885774 4.8387345 1.3097647 6.3321654 1.0625 7.96875 A 1.0001 1.0001 0 0 0 1 8.40625 C 1 8.4709766 0.99753847 8.5296394 1 8.59375 C 0.99939321 8.6245955 1 8.6565744 1 8.6875 C 1.0067678 8.8049913 1.0164368 8.9159604 1.03125 9.03125 C 1.0536237 9.2185949 1.1014372 9.4156735 1.15625 9.59375 C 1.4590854 10.826485 2.2046296 11.91918 3.21875 12.78125 C 4.0779092 13.511593 5.1369309 14.083861 6.3125 14.53125 A 1.0001 1.0001 0 0 0 6.53125 14.9375 C 8.1339345 16.910035 12.101162 19.118434 18.1875 18.59375 A 1.0043849 1.0043849 0 0 0 18 16.59375 C 14.906411 16.860439 12.500325 16.269357 10.78125 15.5 C 14.30154 15.772761 18.245209 15.070028 21.71875 12.96875 A 1.0021949 1.0021949 0 1 0 20.6875 11.25 C 16.887924 13.548509 12.317006 14.000584 8.78125 13.21875 C 8.6725971 13.194724 8.5753958 13.151278 8.46875 13.125 C 10.108287 13.189898 11.88322 13.060799 13.6875 12.6875 C 16.718701 12.060355 19.36029 10.886006 21.21875 9.4375 C 23.067114 7.9968631 24.272087 6.1533076 23.875 4.21875 C 23.8732 4.20861 23.8769 4.197602 23.875 4.1875 C 23.513143 2.2541955 21.685558 1.0369822 19.4375 0.4375 C 18.307598 0.13619269 17.031654 -0.02489364 15.65625 -0.03125 z M 15.65625 1.96875 C 16.883971 1.97489 18.004902 2.1263073 18.9375 2.375 C 20.802695 2.8723854 21.754612 3.7133252 21.90625 4.5625 A 1.0001 1.0001 0 0 0 21.9375 4.625 C 22.12047 5.4788616 21.54154 6.6735055 20 7.875 C 18.45846 9.0764945 16.081299 10.145895 13.3125 10.71875 C 10.546306 11.291066 7.7660826 11.269646 5.8125 10.78125 C 4.8357087 10.537052 4.0847823 10.157122 3.625 9.78125 C 3.3682882 9.5713881 3.1893221 9.3858538 3.09375 9.1875 C 3.0413411 8.9743851 3.0082478 8.7545393 3 8.53125 C 3.0633474 7.4789308 3.7648202 6.2771492 5.1875 5.15625 C 6.6815884 3.9790894 8.91349 2.9489331 11.6875 2.375 C 13.071248 2.0887073 14.428529 1.9626064 15.65625 1.96875 z M 15.96875 3.65625 C 14.93792 3.617106 13.843984 3.69192 12.71875 3.90625 A 1.0001 1.0001 0 0 0 12.6875 3.9375 C 9.8940815 4.582135 7.6159262 5.8506824 6.5625 7.5625 A 1.0001 1.0001 0 1 0 8.25 8.625 C 8.7942179 7.740646 10.701734 6.434394 13.09375 5.875 C 13.10453 5.87295 13.11421 5.87702 13.125 5.875 C 15.064267 5.5112859 17.031887 5.6468794 18.03125 6.03125 A 1.0040202 1.0040202 0 0 0 18.75 4.15625 C 17.952461 3.8495042 16.99958 3.6953943 15.96875 3.65625 z M 9.15625 17.59375 A 1.0001 1.0001 0 0 0 8.5625 19.25 C 8.5625 19.25 11.033033 22.015963 15.53125 21.90625 A 1.0004882 1.0004882 0 1 0 15.46875 19.90625 C 11.766967 19.996537 10.0625 17.9375 10.0625 17.9375 A 1.0001 1.0001 0 0 0 9.15625 17.59375 z M 8.125 20.1875 A 1.0001 1.0001 0 0 0 7.40625 21.65625 C 7.40625 21.65625 8.6869767 23.974979 11.65625 24.09375 A 1.001098 1.001098 0 0 0 11.75 22.09375 C 9.7192733 22.012521 9.1875 20.75 9.1875 20.75 A 1.0001 1.0001 0 0 0 8.21875 20.1875 A 1.0001 1.0001 0 0 0 8.125 20.1875 z M 7.59375 23.0625 A 1.0001 1.0001 0 0 0 7.4375 23.09375 A 1.0001 1.0001 0 0 0 6.9375 23.34375 C 6.9375 23.34375 6.19375 24 5.09375 24 A 1.0001 1.0001 0 1 0 5.09375 26 C 6.99375 26 8.28125 24.84375 8.28125 24.84375 A 1.0001 1.0001 0 0 0 7.59375 23.0625 z" color="#000" overflow="visible" enable-background="accumulate" font-family="Bitstream Vera Sans"/>
</svg>